<mxfile host="app.diagrams.net" modified="2024-01-19T04:57:30.494Z" agent="Mozilla/5.0 (Macintosh; Intel Mac OS X 10_15_7) AppleWebKit/537.36 (KHTML, like Gecko) Chrome/119.0.0.0 Safari/537.36" version="22.1.21" etag="BbpYgFvsGWDjrkfl8l4W" type="github">
  <diagram name="Page-1" id="YEPjnxz17TzMvJirmfcb">
    <mxGraphModel>
      <root>
        <mxCell id="0" />
        <mxCell id="1" parent="0" />
      </root>
    </mxGraphModel>
  </diagram>
</mxfile>
